<svg xmlns="http://www.w3.org/2000/svg" width="16" height="16" viewBox="111 0 16 16" fill="none">
<path d="M125.3 7.38784H118.848V9.93672H122.534C122.375 10.7606 121.893 11.4575 121.166 11.9243C120.552 12.3191 119.768 12.5525 118.846 12.5525C117.063 12.5525 115.554 11.394 115.014 9.83717C114.879 9.44239 114.8 9.02015 114.8 8.5859C114.8 8.15165 114.879 7.72941 115.014 7.33463C115.555 5.77955 117.064 4.62097 118.848 4.62097C119.854 4.62097 120.755 4.95396 121.466 5.6062L123.43 3.71642C122.243 2.65224 120.695 2 118.848 2C116.171 2 113.855 3.47612 112.729 5.62851C112.264 6.51761 112 7.52344 112 8.58762C112 9.65179 112.264 10.6559 112.729 11.545C113.855 13.6974 116.171 15.1735 118.848 15.1735C120.698 15.1735 122.248 14.5831 123.38 13.5772C124.675 12.4307 125.423 10.7417 125.423 8.73523C125.423 8.26836 125.38 7.82038 125.3 7.38784Z" fill="currentColor"/>
</svg>