<svg xmlns="http://www.w3.org/2000/svg" width="96" height="24" fill="none" viewBox="0 0 178 44"><g fill="currentColor"><path d="M21.637 23.647c-.155 0-.31 0-.464-.154-.309-.31-.309-.619 0-.928l3.864-4.018c.31-.31.618-.31.773 0 .154.309.309.618 0 .927l-3.864 4.018c0 .155-.155.155-.31.155ZM27.819 21.638c-.155 0-.31 0-.464-.155-.31-.309-.31-.618 0-.927l1.854-1.855c.31-.309.619-.309.773 0 .31.31.31.619 0 .928l-1.854 1.854c0 .155-.155.155-.31.155ZM21.791 28.129c-.154 0-.309 0-.463-.155-.31-.309-.31-.618 0-.927l4.482-4.636c.309-.31.618-.31.772 0 .31.309.31.618 0 .927L22.1 27.974s-.154.155-.309.155Z"/><path d="M26.891 38.947c-7.418 0-13.446-6.336-13.446-14.064 0-7.727 6.028-14.064 13.446-14.064 7.419 0 13.446 6.337 13.446 14.064.155 7.728-5.873 14.064-13.446 14.064Zm0-27.046c-6.8 0-12.364 5.719-12.364 12.828 0 7.11 5.564 12.828 12.364 12.828 6.8 0 12.364-5.719 12.364-12.828 0-6.955-5.564-12.828-12.364-12.828Z"/><path d="M51.465 5.565H38.637V2.474c0-1.391-1.081-2.628-2.472-2.628H17.619c-1.391 0-2.473 1.082-2.473 2.628v3.09H2.318C.928 5.565 0 6.648 0 8.038V41.42c0 1.391 1.082 2.473 2.318 2.473h49.147c1.391 0 2.318-1.082 2.318-2.473V8.192c.155-1.39-.927-2.627-2.318-2.627ZM16.382 2.628c0-.773.618-1.39 1.237-1.39h18.546c.773 0 1.236.617 1.236 1.39V5.72H16.382V2.63Zm36.32 38.947c0 .618-.464 1.236-1.237 1.236H2.318c-.618 0-1.236-.618-1.236-1.236V8.192c.154-.773.618-1.236 1.236-1.236h49.147c.618 0 1.236.618 1.236 1.236v33.383Z"/><path d="M46.675 16.074c-1.546 0-2.782-1.39-2.782-2.936s1.236-2.937 2.782-2.937c1.545 0 2.781 1.391 2.781 2.937 0 1.545-1.236 2.936-2.782 2.936Zm0-4.636c-.928 0-1.7.772-1.7 1.7 0 .927.772 1.7 1.7 1.7.927 0 1.7-.773 1.7-1.7 0-.928-.773-1.7-1.7-1.7ZM26.893 34.775c-5.255 0-9.582-4.482-9.582-10.046 0-5.564 4.327-10.046 9.582-10.046 5.254 0 9.582 4.482 9.582 10.046 0 5.564-4.173 10.046-9.582 10.046Zm0-18.7c-4.637 0-8.346 3.863-8.346 8.808 0 4.946 3.71 8.81 8.346 8.81s8.345-3.864 8.345-8.81c0-4.945-3.709-8.809-8.345-8.809ZM8.655 16.074H6.182c-1.545 0-2.782-1.39-2.782-2.936S4.637 10.2 6.182 10.2h2.319c1.545 0 2.781 1.391 2.781 2.937 0 1.545-1.081 2.936-2.627 2.936Zm-2.473-4.636c-.772 0-1.545.772-1.545 1.7 0 .927.773 1.7 1.545 1.7h2.319c.927 0 1.7-.773 1.7-1.7 0-.928-.773-1.7-1.546-1.7H6.182ZM60.445 34.705c.825.055 1.87-.11 2.805-.605 1.375-.715 1.815-1.87 1.265-2.915-.495-.99-1.375-1.265-3.08-1.045-2.035.275-3.575-.055-4.345-1.54-.88-1.65-.11-3.575 1.925-4.62 1.1-.55 1.98-.715 2.585-.715l.22 1.32c-.44 0-1.32.055-2.255.55-1.43.77-1.54 1.87-1.155 2.585.495.99 1.43 1.155 3.135.935 2.145-.22 3.465.165 4.29 1.705.825 1.65.385 3.63-2.09 4.95-.99.55-2.255.825-3.025.715l-.275-1.32ZM66.77 21.89c.22.495 0 1.045-.605 1.21-.495.165-1.045-.055-1.21-.55a1.021 1.021 0 0 1 .55-1.265c.605-.165 1.1.11 1.265.605Zm2.2 10.835L66 24.75l1.43-.55 2.97 7.975-1.43.55ZM71.005 25.245c-.22-.88-.385-1.54-.605-2.2l1.32-.33.385 1.32h.055c.275-.88.88-1.815 2.2-2.145 1.155-.275 2.145.22 2.75 1.1h.055c.165-.55.385-.99.66-1.32.385-.495.88-.825 1.705-1.045 1.1-.275 2.915.055 3.575 2.915l1.21 4.895-1.485.385-1.155-4.675c-.385-1.595-1.21-2.42-2.42-2.09-.88.22-1.375.99-1.43 1.815 0 .22 0 .495.055.77l1.265 5.115-1.485.385-1.21-4.95c-.33-1.32-1.155-2.145-2.31-1.87-.935.22-1.43 1.155-1.485 1.98-.055.22 0 .495.055.77l1.21 5.005-1.485.385-1.43-6.215ZM85.69 22.44c-.165-1.1-.33-1.925-.495-2.75l1.375-.22.275 1.43h.055c.495-1.1 1.375-1.87 2.75-2.09 2.035-.275 3.795 1.21 4.18 3.74.44 3.025-1.21 4.785-3.19 5.06-1.1.165-2.145-.165-2.805-.935h-.055l.66 4.565-1.54.22-1.21-9.02Zm1.815 2.035c.055.22.11.44.165.605.44 1.045 1.485 1.595 2.585 1.485 1.595-.22 2.365-1.705 2.09-3.63-.22-1.705-1.32-3.025-2.97-2.75-1.045.165-1.925 1.045-2.035 2.255 0 .22-.055.44 0 .66l.165 1.375ZM95.041 14.355l1.54-.165 1.265 12.43-1.54.165-1.265-12.43ZM100.926 22.385c.165 2.09 1.54 2.86 3.135 2.75 1.1-.055 1.76-.33 2.31-.605l.33 1.1c-.55.275-1.43.605-2.805.715-2.64.165-4.29-1.43-4.455-4.015-.165-2.585 1.21-4.675 3.685-4.84 2.75-.165 3.685 2.2 3.795 3.795V22l-5.995.385Zm4.455-1.43c-.055-.99-.55-2.475-2.31-2.365-1.54.11-2.145 1.595-2.2 2.695l4.51-.33ZM121 25.41c-.55.275-1.705.55-3.135.55-3.355 0-5.83-2.145-5.83-6.05 0-3.74 2.53-6.215 6.215-6.215 1.485 0 2.42.33 2.805.55l-.385 1.265a5.803 5.803 0 0 0-2.365-.495c-2.805 0-4.62 1.76-4.675 4.895 0 2.915 1.65 4.785 4.51 4.785.935 0 1.87-.165 2.475-.495l.385 1.21ZM127.325 26.07l-.055-1.1h-.055c-.495.66-1.43 1.21-2.64 1.155-1.705-.055-2.53-1.32-2.475-2.585.11-2.035 1.98-3.08 5.28-2.915v-.165c.055-.715-.11-1.98-1.87-2.035-.77-.055-1.65.165-2.255.55l-.33-1.045c.715-.44 1.76-.66 2.805-.605 2.585.11 3.135 1.925 3.08 3.63l-.165 3.19c-.055.715-.055 1.485.055 2.035l-1.375-.11Zm0-4.345c-1.705-.11-3.63.11-3.685 1.76-.055.99.605 1.485 1.375 1.54 1.1.055 1.87-.605 2.145-1.32.055-.165.11-.33.11-.495l.055-1.485ZM131.56 20.02c.11-.88.165-1.595.165-2.31l1.375.165-.055 1.375h.055c.55-.77 1.43-1.43 2.805-1.265 1.155.11 1.98.935 2.2 1.98h.055c.33-.44.66-.77 1.045-.99a2.79 2.79 0 0 1 1.925-.385c1.1.11 2.695 1.045 2.365 3.96l-.55 5.005-1.485-.165.55-4.785c.165-1.65-.33-2.695-1.54-2.805-.88-.11-1.65.495-1.98 1.21-.11.22-.165.495-.22.77l-.55 5.225-1.485-.165.55-5.06c.165-1.32-.33-2.365-1.54-2.53-.99-.11-1.76.605-2.09 1.32-.11.22-.165.495-.22.715l-.55 5.115-1.485-.165.66-6.215ZM146.851 24.2c-.33 2.09.825 3.135 2.31 3.465 1.1.22 1.76.165 2.42 0l.055 1.155c-.605.165-1.54.22-2.86 0-2.585-.495-3.795-2.475-3.3-5.005.495-2.53 2.365-4.235 4.785-3.795 2.75.495 3.025 3.08 2.695 4.62-.055.33-.165.55-.165.715l-5.94-1.155Zm4.62-.275c.22-.99.055-2.53-1.65-2.86-1.54-.275-2.475.99-2.805 2.035l4.455.825ZM155.155 23.98c.275-.99.44-1.815.605-2.585l1.32.33-.385 1.65h.055c.66-.99 1.76-1.485 2.75-1.21.165.055.275.11.44.165l-.385 1.43c-.165-.055-.275-.11-.495-.165-1.045-.275-2.035.33-2.53 1.43-.11.22-.165.44-.22.66l-1.1 4.4-1.485-.385 1.43-5.72ZM163.406 32.56l.22-1.045h-.055c-.66.495-1.705.77-2.86.33-1.65-.55-2.09-1.98-1.65-3.135.66-1.925 2.75-2.42 5.885-1.32l.055-.165c.22-.66.44-1.925-1.21-2.475-.77-.275-1.595-.275-2.31-.11v-1.1c.825-.22 1.87-.165 2.915.22 2.475.825 2.475 2.75 1.925 4.345l-1.045 3.025c-.22.715-.44 1.375-.55 1.98l-1.32-.55Zm1.21-4.18c-1.595-.605-3.52-.935-4.015.66-.33.935.165 1.595.88 1.87 1.045.385 1.925-.055 2.42-.66.11-.11.165-.275.22-.44l.495-1.43ZM167.09 32.285c.275.495.825 1.155 1.54 1.485.99.495 1.705.275 2.035-.385.33-.66.11-1.21-.715-2.145-1.1-1.21-1.375-2.255-.88-3.19.605-1.21 2.145-1.705 3.74-.88.77.385 1.32.935 1.595 1.43l-.88.825c-.22-.33-.605-.88-1.32-1.21-.825-.44-1.485-.165-1.815.385-.33.605 0 1.155.77 2.035 1.045 1.155 1.375 2.2.825 3.3-.66 1.32-2.2 1.76-4.015.825-.825-.44-1.485-1.045-1.87-1.595l.99-.88Z"/></g></svg>