<svg width="24" height="24" viewBox="0 0 24 24" fill="none" xmlns="http://www.w3.org/2000/svg">
<path d="M11.0027 15.4313C12.4427 15.4313 13.8237 14.8593 14.842 13.841C15.8602 12.8227 16.4323 11.4417 16.4323 10.0017C16.4323 8.56165 15.8602 7.1806 14.842 6.16235C13.8237 5.1441 12.4427 4.57205 11.0027 4.57205C9.56262 4.57205 8.18158 5.1441 7.16333 6.16235C6.14507 7.1806 5.57303 8.56165 5.57303 10.0017C5.57303 11.4417 6.14507 12.8227 7.16333 13.841C8.18158 14.8593 9.56262 15.4313 11.0027 15.4313V15.4313ZM16.7219 14.4413L19.9615 17.681C20.0479 17.7645 20.1168 17.8644 20.1641 17.9749C20.2115 18.0853 20.2363 18.2041 20.2373 18.3242C20.2383 18.4444 20.2153 18.5635 20.1697 18.6747C20.1241 18.7859 20.0569 18.8869 19.9718 18.9718C19.8868 19.0567 19.7857 19.1238 19.6745 19.1692C19.5632 19.2146 19.444 19.2375 19.3239 19.2363C19.2037 19.2352 19.085 19.2102 18.9746 19.1627C18.8643 19.1151 18.7645 19.0461 18.681 18.9597L15.4414 15.72C13.9866 16.8492 12.1563 17.3816 10.3228 17.2088C8.48938 17.036 6.79071 16.1709 5.57262 14.7898C4.35452 13.4086 3.70857 11.6151 3.76625 9.77447C3.82393 7.9338 4.58091 6.18431 5.8831 4.88212C7.18528 3.57994 8.93478 2.82296 10.7754 2.76527C12.6161 2.70759 14.4096 3.35355 15.7907 4.57164C17.1719 5.78974 18.0369 7.4884 18.2098 9.32184C18.3826 11.1553 17.8502 12.9857 16.721 14.4404L16.7219 14.4413Z" fill="currentColor"/>
</svg>
