<svg xmlns="http://www.w3.org/2000/svg" width="16" height="16" viewBox="32 0 16 16" fill="none">
  <path d="M47.8589 3.37829C47.3125 3.60486 46.7178 3.76792 46.1053 3.83143C46.7413 3.46829 47.2175 2.8946 47.4446 2.21799C46.8479 2.5592 46.1942 2.79846 45.5125 2.92516C45.2276 2.63238 44.883 2.39914 44.5002 2.23998C44.1174 2.08081 43.7046 1.99912 43.2875 2.00001C41.6 2.00001 40.2429 3.31478 40.2429 4.92822C40.2429 5.15479 40.2714 5.38135 40.3179 5.59934C37.7911 5.47232 35.5375 4.31202 34.0393 2.53553C33.7663 2.98371 33.6232 3.49402 33.625 4.01337C33.625 5.02949 34.1625 5.92546 34.9821 6.4524C34.4991 6.43411 34.0274 6.3065 33.6054 6.07994V6.11598C33.6054 7.53889 34.6518 8.71807 36.0464 8.98927C35.7846 9.05464 35.5152 9.08809 35.2446 9.08882C35.0464 9.08882 34.8589 9.06994 34.6696 9.04419C35.0554 10.2045 36.1786 11.0473 37.5161 11.0747C36.4696 11.8626 35.1589 12.326 33.7357 12.326C33.4804 12.326 33.2446 12.3174 33 12.2899C34.35 13.1224 35.9518 13.603 37.6768 13.603C43.2768 13.603 46.3411 9.14374 46.3411 5.27322C46.3411 5.1462 46.3411 5.01919 46.3321 4.89217C46.925 4.47508 47.4446 3.95844 47.8589 3.37829Z" fill="currentColor"/>
</svg>