<svg xmlns="http://www.w3.org/2000/svg" width="16" height="16" viewBox="72 0 16 16" fill="none">
<path d="M87.6661 4.6838C87.575 4.35775 87.3964 4.06041 87.1482 3.82154C86.9 3.58267 86.5909 3.41064 86.2518 3.32269C85.0036 3 80 3 80 3C80 3 74.9964 3 73.7482 3.32097C73.409 3.40864 73.0997 3.58057 72.8514 3.81948C72.6032 4.0584 72.4247 4.35589 72.3339 4.68209C72 5.88358 72 8.38954 72 8.38954C72 8.38954 72 10.8955 72.3339 12.0953C72.5179 12.7578 73.0607 13.2796 73.7482 13.4564C74.9964 13.7791 80 13.7791 80 13.7791C80 13.7791 85.0036 13.7791 86.2518 13.4564C86.9411 13.2796 87.4821 12.7578 87.6661 12.0953C88 10.8955 88 8.38954 88 8.38954C88 8.38954 88 5.88358 87.6661 4.6838ZM78.4107 10.6895V6.08955L82.5536 8.37238L78.4107 10.6895Z" fill="currentColor"/>
</svg>